# xmcd CD database file
#
# Track frame offsets:
#	150
#	11540
#	40385
#	56671
#	70630
#	83731
#	99745
#	130606
#	152680
#	165306
#	183357
#	198715
#	218465
#	245439
#
# Disc length: 3408 seconds
#
# Revision: 0
# Processed by: cddbd v1.5.1PL0 Copyright (c) Steve Scherf et al.
# Submitted via: CDex 1.51
#
DISCID=b00d4e0e
DTITLE=The Human Lobsters - WHAT
DYEAR=2004
DGENRE=Merengue
TTITLE0=Scatman
TTITLE1=Paranoid Android
TTITLE2=Cold Running Water
TTITLE3=Baby Elephant WAlk
TTITLE4=Got AIDS Baby
TTITLE5=Mister Tambourine Man
TTITLE6=Rock Lobster
TTITLE7=Clambake
TTITLE8=Somwhere Over The Rainbow (Bluebirds SCREAM)
TTITLE9=Hey Ya!
TTITLE10=Rapin' You
TTITLE11=Zygote Killer
TTITLE12=Come Sail Away
TTITLE13=Thank You For Listening
EXTD=YEAR: 2004
EXTT0=
EXTT1=
EXTT2=
EXTT3=
EXTT4=
EXTT5=
EXTT6=
EXTT7=
EXTT8=
EXTT9=
EXTT10=
EXTT11=
EXTT12=
EXTT13=
PLAYORDER=
